<?xml version="1.0" encoding="UTF-8"?>
<svg id="Layer_1" data-name="Layer 1" xmlns="http://www.w3.org/2000/svg" viewBox="0 0 150 50">
  <defs>
    <style>
      .cls-1 {
        fill: #00ced1;
      }

      .cls-1, .cls-2, .cls-3, .cls-4 {
        stroke-width: 0px;
      }

      .cls-3 {
        fill: none;
      }

      .cls-4 {
        fill: #ea2088;
      }
    </style>
  </defs>
  <rect class="cls-3" width="150" height="50"/>
  <rect class="cls-3" width="150" height="50"/>
  <rect class="cls-3" width="150" height="50"/>
  <g>
    <g id="SvgjsG1635">
      <g>
        <path class="cls-4" d="m37.9,14.4l-3.4,2.9-9.3-3.4h-1.4l-.9.5h-.8l.4-.7-.8.4v.3h-.8v.3c-.1,0,.1.1.1.1l-.5,1.3h.3q-.1.1-.1.3h-.1c0-.1-.1-.1-.3-.1-.1-.1-.3-.1-.4,0v-.4l-.7-.5v1.2c-.4.3-.9.7-1.3.9l-.5-.9-11.4,10.7,5.9,5.5,8.1-12.1v.8l-2,2.8-3.1,10.1,2.6-9.3-3,4.3-1.3,4.2,1.4,1.8,5.1.4v-1.8c.1,0-.1-.4-.1-.4l.3-.7.8-11.7h-.4c0-.1.1-.9.1-.9l.5-.9h-.5c0-.7.1-1.4.3-2h.1c.1.5.4.9.5,1.4,0,.5.1,1,.1,1.4l-.4.3-.7.4h.5v2.2c-.1,0,1.3,12.1,1.3,12.1l-1.6-10.2-.4,6.3.8,4.2,1.3.8h4.5l-4.6-15.6c.1.3.3.5.5.8l1.3,4.8,3.9,7.5,4.3-2.4-7.7-11.8h-.3c-.1,0-.5-.3-1-.5-.4-.7-.9-1.4-1.4-2h.3c.8.5,1.8,1.3,2.6,1.8l8.1,12.6-.8.4,1.3,1.7,3.9-3.1-12.3-11.9h-.1c-.7-.4-1.6-1-2.5-1.6l2.4-1.3h.9l8.6,5.1,3.7-1v-5.4Zm-12.6,5.4v-.3c.1,0,7.3,9.2,7.3,9.2l-7.3-8.9Zm-2.9.8c-.4-.5-.7-1.3-.9-2,0-.1,0-.3-.1-.4.5.4,1.2.8,1.7,1l.4.8h-.5c0,.1,6,10.7,6,10.7l-6.3-10.3h-.3Zm1.3-.7v-.3c-.1,0,.1.1.1.1h-.1Zm-2.1.3v-.5c0,.1.1.3.3.5h-.3Zm-3.7-2.5c.4-.3.9-.8,1.4-1l.3.4c-.3.7-.5,1.3-.7,1.8h-.4c0-.1-4.3,4.8-4.3,4.8l4.1-5.2-.4-.8Zm1.3,1.2c.1-.4.3-1,.5-1.6,0,.5-.3,1.3-.4,1.7h-.1Zm.4.3c.1-.4.3-1,.4-1.7h.1c0,.7,0,1.2-.1,1.7h-.4Zm1.7-1.4c0-.1-.1-.3-.1-.4h.4c.3.4.7.9.9,1.4-.4-.4-.8-.7-1.2-1Zm-.3-.1v-.3h-.1v.3Zm.3-2.2v.3c-.1,0,.3.3.3.3h.1c0-.1-.4-.5-.4-.5Z"/>
        <path class="cls-2" d="m40.1,8.9v32.2H3.7V8.9h36.4Zm-.9.9H4.6v30.5h34.6V9.8Z"/>
      </g>
    </g>
    <g id="SvgjsG1636">
      <path class="cls-1" d="m45.9,21.1c1,0,1.7.2,2.2.6s.8.9.9,1.7h-1.9c0-.3-.2-.6-.4-.7s-.5-.2-1-.2-.6,0-.8.2-.3.3-.3.5,0,.3.2.4.3.2.5.3.5.2.8.2c.9.2,1.5.4,1.9.5s.6.4.8.7.3.6.3.9c0,.8-.3,1.4-.9,1.8s-1.4.6-2.4.6-1.9-.2-2.4-.7-.9-1.1-.9-1.8h1.9c0,.4.1.7.4.9.3.2.6.3,1.1.3s.7,0,.9-.2.4-.4.4-.7,0-.3-.2-.5-.4-.2-.6-.3-.7-.2-1.3-.3c-.5,0-.9-.2-1.2-.4s-.6-.4-.8-.6-.3-.6-.3-.9.1-.9.3-1.2.6-.6,1-.8,1-.3,1.7-.3h0Zm6.4.2v4c0,.5,0,1,.3,1.3s.5.5,1,.5.9-.2,1.2-.5.3-.8.3-1.5v-3.7h1.9v7.1h-1.9v-1h0c-.5.8-1.2,1.2-2.2,1.2s-1.6-.2-2-.7-.6-1.2-.6-2.2v-4.4s1.9,0,1.9,0Zm10.3-.2c.9,0,1.6.2,2,.7.4.5.6,1.2.6,2.2v4.4h-1.9v-4c0-.6,0-1-.3-1.3s-.5-.4-1-.4-.9.2-1.2.5-.4.8-.4,1.6v3.7h-1.9v-7.1h1.9v1h0c.5-.8,1.2-1.2,2.2-1.2Zm10-2.5v5.3l2.5-2.6h2.3l-2.7,2.6,3,4.5h-2.4l-1.9-3.2-.8.7v2.4h-1.9v-9.8s1.9,0,1.9,0Zm7.8,0v1.6h-1.9v-1.6s1.9,0,1.9,0Zm0,2.7v7.1h-1.9v-7.1h1.9Zm4.4-.2c1,0,1.7.2,2.2.6s.8.9.9,1.7h-1.9c0-.3-.2-.6-.4-.7s-.5-.2-1-.2-.6,0-.8.2-.3.3-.3.5,0,.3.2.4.3.2.5.3.5.2.8.2c.9.2,1.5.4,1.9.5s.6.4.8.7.3.6.3.9c0,.8-.3,1.4-.9,1.8s-1.4.6-2.4.6-1.9-.2-2.4-.7-.9-1.1-.9-1.8h1.9c0,.4.1.7.4.9s.6.3,1.1.3.7,0,.9-.2.4-.4.4-.7,0-.3-.2-.5-.4-.2-.6-.3-.7-.2-1.3-.3c-.5,0-.9-.2-1.2-.4s-.6-.4-.8-.6-.3-.6-.3-.9.1-.9.3-1.2.6-.6,1-.8,1-.3,1.7-.3h0Zm7.4,0c1,0,1.7.2,2.2.6s.8.9.9,1.7h-1.9c0-.3-.2-.6-.4-.7s-.5-.2-1-.2-.6,0-.8.2-.3.3-.3.5,0,.3.2.4.3.2.5.3.5.2.8.2c.9.2,1.5.4,1.9.5s.6.4.8.7.3.6.3.9c0,.8-.3,1.4-.9,1.8s-1.4.6-2.4.6-1.9-.2-2.4-.7-.9-1.1-.9-1.8h1.9c0,.4.1.7.4.9s.6.3,1.1.3.7,0,.9-.2.4-.4.4-.7,0-.3-.2-.5-.4-.2-.6-.3-.7-.2-1.3-.3c-.5,0-.9-.2-1.2-.4s-.6-.4-.8-.6-.3-.6-.3-.9.1-.9.3-1.2.6-.6,1-.8,1-.3,1.7-.3h0Zm7.7,0c.7,0,1.3.2,1.8.5s.9.8,1.2,1.4.4,1.3.4,2,0,.2,0,.4h-5.1c0,.6.2,1,.4,1.3s.7.5,1.3.5.7,0,1-.3.5-.4.6-.7h1.7c-.5,1.6-1.6,2.4-3.3,2.4-.6,0-1.3-.2-1.8-.4s-1-.7-1.3-1.3-.5-1.3-.5-2,.2-1.4.5-2,.8-1,1.3-1.3,1.1-.4,1.8-.4h0Zm1.5,3c0-.5-.3-.9-.5-1.2s-.6-.4-1.1-.4-.9.1-1.1.4-.4.6-.5,1.1h3.2,0Zm10-5.5v9.8h-1.9v-.9h0c-.4.7-1.1,1.1-2.2,1.1s-1.8-.4-2.3-1.1-.9-1.6-.9-2.7.3-2,.9-2.6,1.3-1,2.3-1,.8,0,1.2.3.7.4.9.8h0v-3.6h1.9Zm-5.3,6.2c0,.6.2,1.2.5,1.6s.7.7,1.3.7,1-.2,1.3-.6.4-1,.4-1.7-.1-1.3-.4-1.7-.7-.6-1.2-.6-1,.2-1.3.6-.4,1-.4,1.6h0Zm13.5-3.7c1,0,1.7.2,2.2.6s.8.9.9,1.7h-1.9c0-.3-.2-.6-.4-.7s-.5-.2-1-.2-.6,0-.8.2-.3.3-.3.5,0,.3.2.4.3.2.5.3.5.2.8.2c.9.2,1.5.4,1.9.5s.6.4.8.7.3.6.3.9c0,.8-.3,1.4-.9,1.8s-1.4.6-2.4.6-1.9-.2-2.4-.7-.9-1.1-.9-1.8h1.9c0,.4.1.7.4.9s.6.3,1.1.3.7,0,.9-.2.4-.4.4-.7,0-.3-.2-.5-.4-.2-.6-.3-.7-.2-1.3-.3c-.5,0-.9-.2-1.2-.4s-.6-.4-.8-.6-.3-.6-.3-.9.1-.9.3-1.2.6-.6,1-.8,1-.3,1.7-.3h0Zm6.9-1.9v2.1h1.4v1.3h-1.4v3.5c0,.3,0,.5.2.7s.3.2.7.2.4,0,.6,0v1.5c-.3,0-.7,0-1.2,0-.7,0-1.3-.1-1.7-.4s-.5-.7-.5-1.3v-4.2h-1.2v-1.3h1.2v-2.1h1.9,0Zm3.6,2.1l1.6,4.9h0l1.6-4.9h2l-3,8c-.2.6-.5,1-.9,1.2s-.9.4-1.5.4-.7,0-1.2,0v-1.6c.3,0,.7,0,1,0s.5,0,.6-.3.2-.4.2-.6,0-.3,0-.4l-2.5-6.7h2.1Zm7.9-2.7v9.8h-1.9v-9.8s1.9,0,1.9,0Zm4.8,2.5c.7,0,1.3.2,1.8.5s.9.8,1.2,1.4.4,1.3.4,2,0,.2,0,.4h-5.1c0,.6.2,1,.4,1.3s.7.5,1.3.5.7,0,1-.3.5-.4.6-.7h1.7c-.5,1.6-1.6,2.4-3.3,2.4-.6,0-1.3-.2-1.8-.4s-1-.7-1.3-1.3-.5-1.3-.5-2,.2-1.4.5-2,.8-1,1.3-1.3,1.1-.4,1.8-.4h0Zm1.5,3c0-.5-.3-.9-.5-1.2s-.6-.4-1.1-.4-.9.1-1.1.4-.4.6-.5,1.1h3.2Z"/>
    </g>
  </g>
</svg>